<?xml version="1.0" encoding="UTF-8"?>
<svg width="14px" height="14px" viewBox="0 0 14 14" version="1.1" xmlns="http://www.w3.org/2000/svg" xmlns:xlink="http://www.w3.org/1999/xlink">
    <title>已撤回/灰色icon</title>
    <g id="页面-1" stroke="none" stroke-width="1" fill="none" fill-rule="evenodd">
        <g id="审批管理-我的申请" transform="translate(-824, -647)" fill="#777777" fill-rule="nonzero">
            <g id="编组-15备份-6" transform="translate(810, 381)">
                <g id="状态/绿色备份" transform="translate(0, 252)">
                    <g id="已撤回/灰色icon" transform="translate(14, 14)">
                        <path d="M14,7 C14,10.8659091 10.8659091,14 7,14 C3.13409091,14 0,10.8659091 0,7 C0,3.13409089 3.13409091,0 7,0 C10.8659091,0 14,3.13409091 14,7 Z M7,0.609848482 C3.46818181,0.609848482 0.609848482,3.46818182 0.609848482,7 C0.609848482,10.5318182 3.46818181,13.3901515 7,13.3901515 C10.5318182,13.3901515 13.3901515,10.5318182 13.3901515,7 C13.3901515,3.46818181 10.5318182,0.609848482 7,0.609848482 Z" id="形状"></path>
                        <path d="M2.5719697,7.02651516 C2.5719697,9.48669268 4.56633763,11.4810606 7.02651516,11.4810606 C9.48669268,11.4810606 11.4810606,9.48669268 11.4810606,7.02651516 C11.4810606,4.56633763 9.48669268,2.5719697 7.02651516,2.5719697 C4.56633763,2.5719697 2.5719697,4.56633763 2.5719697,7.02651516 Z" id="路径"></path>
                    </g>
                </g>
            </g>
        </g>
    </g>
</svg>