<?xml version="1.0" encoding="UTF-8"?>
<svg width="14px" height="12px" viewBox="0 0 14 12" version="1.1" xmlns="http://www.w3.org/2000/svg" xmlns:xlink="http://www.w3.org/1999/xlink">
    <title>承兑汇票查询/选中icon</title>
    <g id="页面-1" stroke="none" stroke-width="1" fill="none" fill-rule="evenodd">
        <g id="菜单icon" transform="translate(-20, -244)" fill="#FFFFFF" fill-rule="nonzero">
            <g id="菜单栏/选中备份" transform="translate(0, 223)">
                <g id="融资快报" transform="translate(20, 20.2)">
                    <g id="承兑汇票查询/选中icon" transform="translate(0, 0.8)">
                        <path d="M0,0.484638385 L0,10.8234976 C0,11.0911233 0.218623793,11.3081321 0.4884034,11.3081321 L2.76779876,11.3081321 C2.9996322,11.3084607 3.1996045,11.1454202 3.245971,10.9182704 C3.41074657,10.1013929 3.90291934,9.69322333 4.72141236,9.69322333 C5.53882842,9.69322333 6.03046271,10.1013929 6.19577676,10.9182704 C6.24154775,11.144433 6.44186315,11.3081321 6.67448748,11.3081321 L13.5115966,11.3081321 C13.7813762,11.3081321 14,11.0911233 14,10.8234976 L14,0.484638385 C14,0.217012708 13.7813762,2.17363775e-06 13.5115966,2.17363775e-06 L6.67502596,2.17363775e-06 C6.4433205,-0.000685505605 6.24316757,0.161868395 6.19631524,0.388788545 C6.03100119,1.2062046 5.5393669,1.61491263 4.72141236,1.61491263 C3.90291934,1.61491263 3.41128505,1.20566612 3.24650948,0.388788545 C3.19969752,0.162067035 2.99984062,-0.000429224837 2.76833724,2.17363775e-06 L0.4884034,2.17363775e-06 C0.218623793,2.17363775e-06 0,0.217012708 0,0.484638385 Z M4.23300896,4.68479993 L4.23300896,4.03862123 C4.23300896,3.77045707 4.45163276,3.55398721 4.72141236,3.55398721 C4.99119197,3.55398721 5.20981576,3.77045707 5.20981576,4.03862123 L5.20981576,4.68479993 C5.20981576,4.95242561 4.99119197,5.16943671 4.72141236,5.16943671 C4.45277565,5.17032808 4.23419614,4.95343551 4.23300896,4.68479993 Z M10.906958,5.16943671 L7.32551252,5.16943671 C7.0568758,5.17032808 6.8382963,4.95343551 6.83710912,4.68479993 C6.83710912,4.41717425 7.05573291,4.20016591 7.32551252,4.20016591 L10.906958,4.20016591 C11.1767376,4.20016591 11.3953614,4.41717425 11.3953614,4.68479993 C11.3953614,4.95242561 11.1767376,5.16943671 10.906958,5.16943671 L10.906958,5.16943671 Z M4.23300896,7.26951473 L4.23300896,6.62333603 C4.23300896,6.35571035 4.45163276,6.138702 4.72141236,6.138702 C4.99119197,6.138702 5.20981576,6.35571035 5.20981576,6.62333603 L5.20981576,7.26951473 C5.20981576,7.53767889 4.99119197,7.75415151 4.72141236,7.75415151 C4.45277565,7.75504287 4.23419614,7.53815031 4.23300896,7.26951473 Z M10.906958,7.10797281 L7.32551252,7.10797281 C7.0568758,7.10886417 6.8382963,6.89197161 6.83710912,6.62333603 C6.83710912,6.35571035 7.05573291,6.138702 7.32551252,6.138702 L10.906958,6.138702 C11.1767376,6.138702 11.3953614,6.35571035 11.3953614,6.62333603 C11.3953614,6.89096171 11.1767376,7.10797281 10.906958,7.10797281 L10.906958,7.10797281 Z" id="形状"></path>
                    </g>
                </g>
            </g>
        </g>
    </g>
</svg>