<svg t="1709044970941" class="icon" viewBox="0 0 1024 1024" version="1.1" xmlns="http://www.w3.org/2000/svg" p-id="876" width="200" height="200"><path d="M738.422 174.5A112.5 112.5 0 0 0 625.922 62h-450a112.5 112.5 0 0 0-112.5 112.5v675a112.5 112.5 0 0 0 112.5 112.5h162.563l399.937-703.125zM326.11 774.688h-75.375a37.688 37.688 0 1 1 0-74.813h75.375a37.688 37.688 0 1 1 0 74.813z m37.687-225h-112.5a37.688 37.688 0 0 1 0-74.813h112.5a37.688 37.688 0 0 1 0 74.813z m187.313-225H250.735a37.688 37.688 0 1 1 0-74.813H551.11a37.688 37.688 0 0 1 0 74.813zM944.297 287l-32.625-18.563a37.688 37.688 0 0 0-51.187 14.063L582.61 771.313l97.875 56.25L958.36 337.625A37.688 37.688 0 0 0 944.297 287zM538.735 962l123.187-102.375-97.875-55.688L538.735 962z" p-id="877"></path></svg>