<?xml version="1.0" encoding="UTF-8"?>
<svg width="14px" height="14px" viewBox="0 0 14 14" version="1.1" xmlns="http://www.w3.org/2000/svg" xmlns:xlink="http://www.w3.org/1999/xlink">
    <title>审批管理/选中icon</title>
    <g id="页面-1" stroke="none" stroke-width="1">
        <g id="菜单icon" transform="translate(-20, -463)">
            <g id="菜单栏/默认备份-17" transform="translate(0, 443)">
                <g id="审批管理/选中icon" transform="translate(20, 20)">
                    <path d="M6.125,13.125 L14,13.125 L14,14 L6.125,14 L6.125,13.125 Z M8.75,7.875 L11.375,7.875 L11.375,10.5 L8.75,10.5 L8.75,7.875 Z" id="形状"></path>
                    <path d="M7.875,9.625 L12.25,9.625 C13.2164983,9.625 14,10.4085017 14,11.375 L14,12.25 L6.125,12.25 L6.125,11.375 C6.125,10.4085017 6.90850169,9.625 7.875,9.625 Z" id="路径"></path>
                    <path d="M7.875,6.5625 C7.875,7.77062289 8.85437711,8.75 10.0625,8.75 C11.2706229,8.75 12.25,7.77062289 12.25,6.5625 C12.25,5.35437711 11.2706229,4.375 10.0625,4.375 C8.85437711,4.375 7.875,5.35437711 7.875,6.5625 L7.875,6.5625 Z" id="路径"></path>
                    <path d="M10.5,0 C11.4664983,0 12.25,0.783501688 12.25,1.75 L12.250875,4.4205 C11.4771717,3.64679671 10.3494746,3.34463117 9.29257623,3.62782623 C8.23567788,3.9110213 7.4101463,4.73655288 7.12695123,5.79345123 C6.84375617,6.85034959 7.14592171,7.97804671 7.919625,8.75175 L7,8.75 C6.03350169,8.75 5.25,9.53350169 5.25,10.5 L5.25,14 L1.75,14 C0.783501688,14 0,13.2164983 0,12.25 L0,1.75 C0,0.783501688 0.783501688,0 1.75,0 L10.5,0 Z M12.3045,8.7045 L12.3026132,8.80261321 L12.2045,8.8045 L12.3045,8.7045 L12.3045,8.7045 Z M3.9375,7.875 L2.1875,7.875 C1.94587542,7.875 1.75,8.07087542 1.75,8.3125 C1.75,8.55412458 1.94587542,8.75 2.1875,8.75 L3.9375,8.75 C4.17912458,8.75 4.375,8.55412458 4.375,8.3125 C4.375,8.07087542 4.17912458,7.875 3.9375,7.875 Z M5.6875,5.25 L2.1875,5.25 C1.94587542,5.25 1.75,5.44587542 1.75,5.6875 C1.75,5.92912458 1.94587542,6.125 2.1875,6.125 L5.6875,6.125 C5.92912458,6.125 6.125,5.92912458 6.125,5.6875 C6.125,5.44587542 5.92912458,5.25 5.6875,5.25 Z M6.5625,2.625 L2.1875,2.625 C1.94587542,2.625 1.75,2.82087542 1.75,3.0625 C1.75,3.30412458 1.94587542,3.5 2.1875,3.5 L6.5625,3.5 C6.80412458,3.5 7,3.30412458 7,3.0625 C7,2.82087542 6.80412458,2.625 6.5625,2.625 Z" id="形状"></path>
                </g>
            </g>
        </g>
    </g>
</svg>