<?xml version="1.0" encoding="UTF-8"?>
<svg width="20px" height="19px" viewBox="0 0 20 19" version="1.1" xmlns="http://www.w3.org/2000/svg" xmlns:xlink="http://www.w3.org/1999/xlink">
    <title>银行承兑汇票icon</title>
    <g id="页面-1" stroke="none" stroke-width="1" >
        <g id="承兑汇票查询-银行承兑汇票" transform="translate(-240, -126)">
            <g id="银行承兑汇票icon" transform="translate(240, 126)">
                <path d="M19.7724537,4.27576685 L10.6752214,0.216849741 C10.6652024,0.211747385 10.6526787,0.206645054 10.6426597,0.201542699 C10.5800411,0.163275106 10.3120334,0.0127558642 10.021483,0 L9.98892136,0 C9.69586624,0.015307042 9.43036331,0.163275106 9.36523997,0.201542699 C9.355221,0.206645054 9.345202,0.214298563 9.33267828,0.216849741 L0.255483935,4.27576685 C0.0951802822,4.33954619 0,4.5028213 0,4.66354523 L0,5.15337054 C0,5.32174801 0.132751465,5.45696021 0.298064591,5.45696021 L1.27992447,5.45696021 C1.41518069,5.45696021 1.53290368,5.54625128 1.56797009,5.6789123 C1.69070259,6.15598176 2.21168945,6.12791885 2.29434601,6.1228165 L17.6985252,6.1228165 C17.7811817,6.13047 18.3021686,6.15853294 18.4249011,5.6789123 C18.4599675,5.54625128 18.5776905,5.45696021 18.7129467,5.45696021 L19.6948066,5.45696021 C19.8601197,5.45696021 19.9928712,5.32174801 19.9928712,5.15337054 L19.9928712,4.68905695 C19.9928712,4.67374991 19.995376,4.65589169 19.9978807,4.64058468 C20.0154139,4.49006543 19.9227384,4.35485323 19.7724537,4.27576685 Z M19.1187154,17.0265322 L0.90671754,17.0265322 C0.207893806,17.0265322 0.222896697,17.7230026 0.222896697,17.7230026 L0.222896697,18.5852993 C0.222896697,18.7536767 0.355673715,18.8888889 0.520986865,18.8888889 L19.5019413,18.8888889 C19.6672544,18.8888889 19.8000059,18.7536767 19.8000059,18.5852993 L19.8000059,17.7230026 C19.8025106,17.7230026 19.8200438,17.0265322 19.1187154,17.0265322 Z M2.88045625,7.14073473 L2.88045625,14.9855934 L2.1014807,14.9855934 C1.52538944,14.9855934 1.44523762,15.5417492 1.43521863,15.6488985 C1.43521863,15.6591032 1.4327139,15.6693079 1.4327139,15.6769614 L1.4327139,16.023921 C1.4327139,16.1922985 1.56546537,16.3275107 1.73077849,16.3275107 L18.3272161,16.3275107 C18.4925292,16.3275107 18.6252807,16.1922985 18.6252807,16.023921 L18.6252807,15.6769614 C18.6252807,15.6667567 18.6252807,15.656552 18.6227759,15.6488985 C18.612757,15.5417492 18.5326051,14.9855934 17.9565139,14.9855934 L17.1775383,14.9855934 L17.1775383,7.14073473 C17.1775383,6.97235726 17.0447868,6.83714509 16.8794737,6.83714509 L14.9658488,6.83714509 C14.8005357,6.83714509 14.6677842,6.97235729 14.6677842,7.14073473 L14.6677842,14.9855934 L13.1398901,14.9855934 L13.1398901,7.14073473 C13.1398901,6.97235726 13.0071386,6.83714509 12.8418254,6.83714509 L10.9432291,6.83714509 C10.7779159,6.83714509 10.6451644,6.97235729 10.6451644,7.14073473 L10.6451644,15.0009004 L9.40531587,15.0009004 L9.40531587,7.14073473 C9.40531587,6.97235726 9.27256441,6.83714509 9.10725128,6.83714509 L7.20865489,6.83714509 C7.04334174,6.83714509 6.91059028,6.97235729 6.91059028,7.14073473 L6.91059028,14.9855934 L5.38269609,14.9855934 L5.38269609,7.14073473 C5.38269609,6.97235726 5.24994463,6.83714509 5.08463148,6.83714509 L3.18603509,6.83714509 C3.01320771,6.83714509 2.88045625,6.97235729 2.88045625,7.14073473 Z" id="形状"></path>
            </g>
        </g>
    </g>
</svg>