<?xml version="1.0" encoding="UTF-8"?>
<svg width="14px" height="11px" viewBox="0 0 14 11" version="1.1" xmlns="http://www.w3.org/2000/svg" xmlns:xlink="http://www.w3.org/1999/xlink">
    <title>商业承兑汇票/选中icon</title>
    <g id="页面-1" stroke="none" stroke-width="1" >
        <g id="承兑汇票查询-商业承兑汇票" transform="translate(-40, -354)" >
            <g id="二级菜单/默认" transform="translate(0, 332)">
                <g id="组-3" transform="translate(40, 16)">
                    <path d="M9.33488083,6.00138323 L9.33488083,16.9999999 L1.75117695,16.9999999 C1.28657435,17.0001835 0.840959933,16.806884 0.512498189,16.4626833 C0.184036445,16.1184826 -0.000325745973,15.6516188 1.23096086e-05,15.1649374 L1.23096086e-05,13.1590268 C0.610840573,12.8556634 1.00021267,12.2108833 1.00021267,11.5027672 C1.00021267,10.794651 0.610840573,10.1498709 1.23096086e-05,9.84650753 L1.23096086e-05,7.84059693 C-0.00173239381,7.35308478 0.18205092,6.88493863 0.510703596,6.53975897 C0.839356271,6.19457931 1.28577838,6.00082883 1.75117695,6.00138323 L9.33488083,6.00138323 Z M12.2481853,6.00000052 C12.7129023,5.99963365 13.1586864,6.19285204 13.4872911,6.53707266 C13.8158957,6.88129328 14.0003485,7.34826206 13.9999989,7.83506339 L13.9999989,9.84443246 C13.389182,10.1477958 12.9998099,10.792576 12.9998099,11.5006921 C12.9998099,12.2088082 13.389182,12.8535883 13.9999989,13.1569517 L13.9999989,15.1628623 C14.0005242,15.6497199 13.8161279,16.1167957 13.4874851,16.4610563 C13.1588423,16.8053169 12.712956,16.9984761 12.2481853,16.9979258 L10.4996744,16.9979258 L10.4996744,6.00000052 L12.2481853,6.00000052 Z M4.77671885,9 L4,9 L5.45064669,11.7375374 L4.26072157,11.7382851 L4.26072157,12.3432203 L5.65486726,12.3432203 L5.65486726,13.1769691 L4.26072157,13.1769691 L4.26072157,13.7893819 L5.65486726,13.7893819 L5.65486726,15 L6.34717496,15 L6.34717496,13.7893819 L7.69230769,13.7893819 L7.69230769,13.1769691 L6.34717496,13.1769691 L6.34717496,12.3432203 L7.69230769,12.3432203 L7.69230769,11.7382851 L6.53505787,11.7382851 L8,9.00074776 L7.264806,9.00074776 L6.43498979,10.6794616 C6.28375872,10.9733224 6.14740442,11.2761256 6.02654867,11.5864905 L6.01225324,11.5864905 C5.86612209,11.2220837 5.45427729,10.3599202 4.77671885,9 Z" id="商业承兑汇票/选中icon"></path>
                </g>
            </g>
        </g>
    </g>
</svg>