<?xml version="1.0" encoding="UTF-8"?>
<svg width="14px" height="15px" viewBox="0 0 14 15" version="1.1" xmlns="http://www.w3.org/2000/svg" xmlns:xlink="http://www.w3.org/1999/xlink">
    <title>授信管理/选中icon</title>
    <g id="页面-1" stroke="none" stroke-width="1" fill="none" fill-rule="evenodd">
        <g id="菜单icon" transform="translate(-20, -353)" fill="#FFFFFF" fill-rule="nonzero">
            <g id="菜单栏/默认备份-12" transform="translate(0, 333)">
                <g id="授信管理/选中icon" transform="translate(20, 20)">
                    <path d="M1.23465171,0.619051061 C1.56776831,0.246822792 2.06089983,0.0317575705 2.55789789,0.000443128891 C5.89887886,-0.00014770963 9.23985984,-0.00014770963 12.5808408,0.000443128891 C12.9062243,-0.00723777188 13.2262542,0.127177992 13.4591384,0.350219533 C13.8077211,0.681679944 13.9912327,1.16321334 13.9995606,1.63824751 C13.9999307,5.59745644 13.9992632,9.55666537 13.9999307,13.5158743 C14.0028323,13.7826379 13.9144969,14.0496969 13.7497231,14.2603308 C13.5308179,14.5460013 13.179261,14.7235482 12.8184838,14.7368421 C12.1347025,14.7179353 11.4503264,14.7321154 10.7662477,14.7276841 L2.41007741,14.7276841 C1.94222705,14.7229574 1.4675359,14.5522051 1.1308502,14.2239943 C0.900047993,14.0009527 0.750740377,13.6904671 0.746576419,13.3681647 C0.743602164,13.0807217 0.746576419,12.7935742 0.745089292,12.5061313 C0.395614295,12.3194263 0.118116276,11.987375 0.0235349575,11.6021483 C-0.092460999,11.0665532 0.232327679,10.4810322 0.74389959,10.2813288 C0.747171271,9.72623603 0.744791866,9.17143865 0.745089292,8.61634586 C0.441417826,8.45504695 0.196934041,8.18414749 0.0708256167,7.86568552 C-0.0561750844,7.54958691 -0.00680244649,7.17794948 0.174329701,6.89227906 C0.310848019,6.67455506 0.516963911,6.50675692 0.745089292,6.39006632 C0.743602164,5.83438269 0.749253249,5.27840364 0.742412462,4.72242459 C0.467591273,4.58180502 0.247496381,4.34399252 0.111572914,4.06984344 C0.00331002151,3.85152861 -0.0344630207,3.59451385 0.0357294042,3.3590647 C0.149345956,2.96881586 0.464914443,2.65478519 0.838183482,2.50028091 C0.839968036,2.20279372 0.835506653,1.90560194 0.840265461,1.60811475 C0.850080504,1.24593073 0.991655056,0.889359684 1.23465171,0.619051061 M5.3284167,2.68373627 C4.56522279,3.07457595 3.92813731,3.70086479 3.52185403,4.45152513 C3.0694698,5.28283493 2.90320893,6.26421771 3.05995219,7.19626548 C3.19855248,8.04234624 3.5982924,8.84411411 4.19492801,9.4636083 C4.0096319,10.1537077 3.82225382,10.8435117 3.63784999,11.5342019 C3.55605797,11.7613793 3.78775246,12.0059865 4.0212315,11.9424713 C4.36713739,11.8881142 4.71304328,11.8334616 5.0592466,11.7791045 C5.33644719,12.002146 5.61335036,12.225483 5.89055095,12.4482291 C6.06573459,12.6110051 6.38249278,12.5011091 6.41848126,12.26566 C6.55321503,11.7649243 6.68824622,11.2644841 6.82327741,10.7637485 C7.14839466,10.8006759 7.47669015,10.8006759 7.8018074,10.7637485 C7.94100255,11.2754146 8.07573631,11.787967 8.21612116,12.2990424 C8.25538133,12.4455703 8.41212459,12.5463083 8.56321676,12.523561 C8.64381908,12.5164709 8.7116321,12.4692039 8.77141463,12.4189826 C9.03314909,12.2048036 9.29964237,11.9962376 9.55959228,11.7802861 C9.91442094,11.8310983 10.2680599,11.8919546 10.6225911,11.9448347 C10.7754678,11.9749674 10.9396467,11.8792516 10.9848554,11.7309511 C11.0232233,11.6266681 10.982476,11.5185447 10.9560051,11.4172159 C10.7808215,10.7667027 10.6059353,10.1161895 10.4313465,9.46538082 C10.7671399,9.10940061 11.0461251,8.6996541 11.2451028,8.25298017 C11.5945778,7.48075423 11.7049226,6.60483612 11.5603738,5.77086755 C11.4208812,4.949602 11.0339306,4.17235393 10.4619813,3.56379025 C9.73656047,2.78417882 8.70806299,2.29289659 7.64238732,2.21461049 C6.84677403,2.1519816 6.03599203,2.31830265 5.3284167,2.68373627 L5.3284167,2.68373627 Z" id="形状"></path>
                    <path d="M7.63739574,4.56469247 C7.78435378,4.85566399 7.91839559,5.15408869 8.05961308,5.44833961 C8.36902864,5.49842487 8.68045339,5.53718132 8.98929489,5.59203661 C9.20944492,5.63615934 9.30071964,5.95366414 9.14256753,6.11763375 C8.92442669,6.34540244 8.70025828,6.56720861 8.47953419,6.79259229 C8.52947696,7.1035383 8.58142893,7.41358993 8.6313717,7.72453593 C8.65605606,7.85809664 8.59032678,8.00447678 8.47235851,8.06559273 C8.38137082,8.11746675 8.26627282,8.11388923 8.17672027,8.0608227 C7.91150693,7.91593319 7.64658062,7.77044743 7.38136728,7.62555791 C7.10553393,7.77432307 6.83285789,7.92964701 6.5555894,8.07483465 C6.35294804,8.1842471 6.09232714,7.98062665 6.12705746,7.75017482 C6.17585212,7.43207377 6.23067436,7.11456898 6.2834874,6.79706419 C6.10409527,6.60894633 5.91924961,6.42649287 5.73842233,6.24016376 C5.66035087,6.15966959 5.56247452,6.08275294 5.5443918,5.96260793 C5.51080959,5.80549523 5.61184324,5.63407246 5.76167155,5.59442162 C6.07395739,5.53211317 6.39628918,5.50856117 6.70513068,5.43850143 C6.85007953,5.14812616 6.97780673,4.84761458 7.12734802,4.55962432 C7.23727952,4.37240083 7.53090857,4.37568022 7.63739574,4.56469247 Z" id="路径"></path>
                </g>
            </g>
        </g>
    </g>
</svg>