<?xml version="1.0" encoding="UTF-8"?>
<svg width="13px" height="14px" viewBox="0 0 13 14" version="1.1" xmlns="http://www.w3.org/2000/svg" xmlns:xlink="http://www.w3.org/1999/xlink">
    <title>信用证icon</title>
    <g id="页面-1" stroke="none" stroke-width="1" >
        <g id="承兑汇票查询-商业承兑汇票" transform="translate(-40, -406)" >
            <g id="二级菜单/默认备份" transform="translate(0, 386)">
                <g id="组-3" transform="translate(40, 16)">
                    <g id="信用证icon" transform="translate(0, 4)">
                        <path d="M11.9597366,0 L1.04026336,0 C0.469106103,0 0,0.450553134 0,0.999664767 L0,13.0003352 C0,13.5510113 0.467460116,14 1.04026336,14 L11.9597366,14 C12.5308939,14 13,13.5494469 13,13.0003352 L13,0.999664767 C13,0.450553134 12.5308939,0 11.9597366,0 Z M6.5,2.37791932 C8.22334768,2.37791932 9.61914409,3.72175662 9.61914409,5.37847804 C9.61914409,7.03519946 8.22334768,8.37747234 6.5,8.37747234 C4.77665232,8.37747234 3.38085591,7.03363504 3.38085591,5.37691362 C3.38085591,3.7201922 4.77665232,2.37791932 6.5,2.37791932 Z M10.1392758,12.0006705 L2.86072423,12.0006705 C2.57432261,12.0006705 2.34059256,11.7753939 2.34059256,11.5000559 C2.34059256,11.2247178 2.57432261,10.9994413 2.86072423,10.9994413 L10.1392758,10.9994413 C10.4256774,10.9994413 10.6594074,11.2247178 10.6594074,11.5000559 C10.6594074,11.7769583 10.4256774,12.0006705 10.1392758,12.0006705 L10.1392758,12.0006705 Z M5.32476576,5.7852274 L5.12395543,6.95384959 C5.10914155,7.03989273 5.14699924,7.12593586 5.22106862,7.17599732 C5.29513801,7.22605878 5.3922512,7.23075204 5.47125855,7.1900771 L6.49835401,6.64722315 L7.52544948,7.19633479 C7.56001519,7.21354341 7.59787288,7.22136552 7.63573056,7.22136552 L7.63902254,7.22136552 C7.71473791,7.22136552 7.78551532,7.18538384 7.83160294,7.12750028 C7.87604457,7.0680523 7.88756647,6.99139569 7.86452266,6.92256118 L7.67523424,5.78992066 L8.51468726,4.965471 C8.57723474,4.9044586 8.59863257,4.81528662 8.56900481,4.73550117 C8.54102304,4.6541513 8.46859965,4.59470332 8.38136237,4.58218795 L7.2341099,4.41166611 L6.72056217,3.35255336 C6.6810585,3.27276791 6.59875918,3.22114203 6.50658395,3.22114203 C6.41440871,3.22114203 6.33210939,3.27120349 6.29260572,3.35098894 L5.77576602,4.40697285 L4.62522158,4.57280143 C4.5379843,4.5853168 4.46391492,4.64476478 4.43757913,4.72611465 C4.40959737,4.8059001 4.4293492,4.8966365 4.49189668,4.95608448 L5.32476576,5.7852274 L5.32476576,5.7852274 Z" id="形状"></path>
                    </g>
                </g>
            </g>
        </g>
    </g>
</svg>