<?xml version="1.0" encoding="UTF-8"?>
<svg width="14px" height="14px" viewBox="0 0 14 14" version="1.1" xmlns="http://www.w3.org/2000/svg" xmlns:xlink="http://www.w3.org/1999/xlink">
    <title>融资快报/默认icon</title>
    <g id="页面-1" stroke="none" stroke-width="1" fill="none" fill-rule="evenodd">
        <g id="菜单icon" transform="translate(-20, -78)" fill="#BFC9D7" fill-rule="nonzero">
            <g id="菜单栏/默认备份-9" transform="translate(0, 58)">
                <g id="融资快报/默认icon" transform="translate(20, 20)">
                    <path d="M0.875,0 L13.125,0 C13.6082492,0 14,0.391750844 14,0.875 L14,9.625 C14,10.1082492 13.6082492,10.5 13.125,10.5 L0.875,10.5 C0.391750844,10.5 0,10.1082492 0,9.625 L0,0.875 C0,0.391750844 0.391750844,0 0.875,0 Z M3.5,1.75 C3.017,1.75 2.625,2.09825 2.625,2.527875 L2.625,7.97125 C2.625,8.400875 3.017,8.749125 3.5,8.749125 C3.983,8.749125 4.375,8.400875 4.375,7.97125 L4.375,2.52875 C4.375,2.09825 3.983,1.75 3.5,1.75 Z M7,3.5 C6.51675084,3.5 6.125,3.89175084 6.125,4.375 L6.125,7.875 C6.125,8.35824916 6.51675084,8.75 7,8.75 C7.48324916,8.75 7.875,8.35824916 7.875,7.875 L7.875,4.375 C7.875,3.89175084 7.48324916,3.5 7,3.5 Z M10.5,4.55 C10.017,4.55 9.625,4.92625 9.625,5.39 L9.625,7.91 C9.625,8.37375 10.017,8.75 10.5,8.75 C10.983,8.75 11.375,8.37375 11.375,7.91 L11.375,5.39 C11.375,4.92625 10.983,4.55 10.5,4.55 Z M0.875,12.25 L13.125,12.25 C13.6082492,12.25 14,12.6417508 14,13.125 C14,13.6082492 13.6082492,14 13.125,14 L0.875,14 C0.391750844,14 0,13.6082492 0,13.125 C0,12.6417508 0.391750844,12.25 0.875,12.25 Z" id="形状"></path>
                </g>
            </g>
        </g>
    </g>
</svg>