<?xml version="1.0" encoding="UTF-8"?>
<svg width="13px" height="14px" viewBox="0 0 13 14" version="1.1" xmlns="http://www.w3.org/2000/svg" xmlns:xlink="http://www.w3.org/1999/xlink">
    <title>融资项目/选中icon</title>
    <g id="页面-1" stroke="none" stroke-width="1">
        <g id="融资查询-融资项目" transform="translate(-40, -188)">
            <g id="二级菜单/选中" transform="translate(0, 168)">
                <g id="组-3" transform="translate(40, 16)">
                    <g id="融资项目/选中icon" transform="translate(0, 4)">
                        <path d="M11.941487,0 L9.28571429,0 C9.28133423,0 9.27549416,0 9.27111411,0.00138723742 L3.84422731,0.0180340864 C3.80334681,0.00554894966 3.75954627,0 3.71428571,0 L1.05851303,0 C0.47450584,0 0,0.463337297 0,1.03210464 L0,12.9678954 C0,13.5366627 0.47450584,14 1.05851303,14 L11.941487,14 C12.5254942,14 13,13.5366627 13,12.9678954 L13,1.03210464 C13,0.463337297 12.5254942,0 11.941487,0 Z M4.39027403,5.43103448 C4.2574124,5.42132382 4.15521114,5.37554499 4.08367026,5.29369798 C4.01212938,5.21185097 3.96978886,5.1091954 3.95518868,4.98434403 C3.96978886,4.86504162 4.01212938,4.76654776 4.08367026,4.6902497 C4.15521114,4.61395164 4.2574124,4.57094728 4.39027403,4.55984939 L5.45316712,4.55984939 L4.46473495,2.86325803 C4.41509434,2.80638129 4.36837376,2.73285771 4.32457323,2.64407451 C4.28077269,2.55529132 4.26033243,2.4581847 4.26617251,2.35275466 C4.29099281,2.21819263 4.33917341,2.10998811 4.41363432,2.02536663 C4.48663522,1.94074514 4.62533693,1.88803012 4.82681941,1.86305985 C4.94508086,1.87277051 5.05020216,1.91161316 5.14364331,1.98236227 C5.23708446,2.05172414 5.31300539,2.12663496 5.37286613,2.20848197 L6.49415993,4.20749108 L7.72641509,2.19460959 C7.78481581,2.11276258 7.86219677,2.04201348 7.95563792,1.97958779 C8.04907907,1.91716211 8.15420036,1.87831946 8.27246181,1.86444709 C8.34692273,1.8686088 8.41408356,1.87831946 8.47540431,1.89357907 C8.53672507,1.90745145 8.59074573,1.93242172 8.63746631,1.96571542 C8.68418688,1.99900912 8.72360737,2.04756243 8.75572776,2.10998811 C8.78784816,2.17241379 8.81120845,2.25287356 8.82580863,2.35414189 C8.82580863,2.49286564 8.77616801,2.62465319 8.67834681,2.74950456 L7.53515274,4.56123662 L8.61702606,4.56123662 C8.74550764,4.57094728 8.84624888,4.61395164 8.91924978,4.6902497 C8.99225067,4.76654776 9.03459119,4.86504162 9.04481132,4.98434403 C9.03459119,5.1091954 8.99225067,5.21462545 8.91632974,5.30063417 C8.84040881,5.38664289 8.73820755,5.4351962 8.60972597,5.44351962 L7.20080863,5.45184304 L7.20080863,5.89021007 L8.61702606,5.89021007 C8.74550764,5.89992073 8.84624888,5.9470868 8.91924978,6.03309552 C8.99225067,6.11910424 9.03459119,6.22314705 9.04481132,6.34244946 C9.03459119,6.46730083 8.99371069,6.57134364 8.91924978,6.65457788 C8.84624888,6.73919937 8.74550764,6.7849782 8.61702606,6.79468886 L7.20080863,6.78775268 L7.20080863,7.55073325 C7.18182839,7.95858105 6.95260557,8.16111772 6.51460018,8.16111772 C6.29851752,8.16111772 6.13061545,8.11117717 6.00943396,8.00990884 C5.88825247,7.91002774 5.82401168,7.75604439 5.81379155,7.54934602 L5.81379155,6.80439952 L4.39027403,6.80439952 C4.2574124,6.79468886 4.15521114,6.7405866 4.08367026,6.64209275 C4.01212938,6.54359889 3.96978886,6.43539437 3.95518868,6.31470472 C3.96978886,6.1954023 4.01212938,6.09690844 4.08367026,6.02061038 C4.15521114,5.94431233 4.2574124,5.90130797 4.39027403,5.8915973 L5.81379155,5.8915973 L5.81379155,5.43797067 L4.39027403,5.43103448 Z M6.90004492,12.4437971 L2.64701258,12.4437971 C2.33456873,12.4437971 2.08052561,12.1307317 2.08052561,11.7437971 C2.08052561,11.3568624 2.33456873,11.0437971 2.64701258,11.0437971 L6.89858491,11.0437971 C7.21102875,11.0437971 7.46507188,11.3568624 7.46507188,11.7437971 C7.46507188,12.1307317 7.21248877,12.4437971 6.90004492,12.4437971 L6.90004492,12.4437971 Z M10.3529874,10.3712644 L2.64701258,10.3712644 C2.33456873,10.3712644 2.08052561,10.058199 2.08052561,9.67126437 C2.08052561,9.28432969 2.33456873,8.97126437 2.64701258,8.97126437 L10.3529874,8.97126437 C10.6654313,8.97126437 10.9194744,9.28432969 10.9194744,9.67126437 C10.9194744,10.058199 10.6654313,10.3712644 10.3529874,10.3712644 Z" id="形状"></path>
                    </g>
                </g>
            </g>
        </g>
    </g>
</svg>