<?xml version="1.0" encoding="UTF-8"?>
<svg width="14px" height="14px" viewBox="0 0 14 14" version="1.1" xmlns="http://www.w3.org/2000/svg" xmlns:xlink="http://www.w3.org/1999/xlink">
    <title>融资查询/选中icon</title>
    <g id="页面-1" stroke="none" stroke-width="1" fill="none" fill-rule="evenodd">
        <g id="菜单icon" transform="translate(-20, -134)" fill="#FFFFFF" fill-rule="nonzero">
            <g id="菜单栏/默认备份-11" transform="translate(0, 113)">
                <g id="融资快报" transform="translate(20, 20.2)">
                    <g id="融资查询/选中icon" transform="translate(0, 0.8)">
                        <path d="M8.22145016,2.34627843 C8.22145016,3.0055479 8.78199855,3.5484785 9.48788692,3.58727403 L12,3.58727403 L12,7.2283623 C11.7923958,7.18958268 11.5640141,7.18958268 11.3356325,7.18958268 C8.8783604,7.18958268 7.16263465,8.80332397 7.16263465,10.9750782 C7.16263465,12.196684 8,13.2796925 8.99653695,14 L1.32871801,14 C0.60208626,14 0.0207604207,13.4764592 0,12.8171738 L0,1.24101151 C0,0.581726132 0.560565419,0.0387955276 1.26643675,0 L8.22145016,0 L8.22145016,2.34627843 Z M6.80521802,5 L2.19481756,5 C2.14308566,4.99983602 2.09340926,5.01532649 2.05682729,5.0430305 C2.02024531,5.07073451 1.99978813,5.1083571 2,5.14753794 L2,5.85247551 C1.99979288,5.89165402 2.02025216,5.92927315 2.05683361,5.95697424 C2.09341507,5.98467532 2.14308875,6.00016396 2.19481756,6 L6.80520027,6 C6.85692601,6.00016036 6.90659511,5.98467014 6.94317271,5.95696944 C6.97975032,5.92926875 7.00020716,5.89165168 7,5.85247551 L7,5.14753794 C7,5.04918019 6.91342146,5 6.80520027,5 L6.80521802,5 Z M6.80521796,2 L2.19481763,2 C2.14308263,1.99983599 2.09340353,2.0153281 2.05682103,2.04303466 C2.02023854,2.07074121 1.99978346,2.10836677 2,2.1475494 L2,2.85246405 C1.9997882,2.89164435 2.02024539,2.92926644 2.05682736,2.95697008 C2.09340933,2.98467371 2.14308573,3.00016398 2.19481763,3 L6.8052002,3 C6.85692903,3.00016038 6.90660085,2.98466853 6.94317897,2.95696529 C6.97975709,2.92926205 7.00021184,2.89164201 7,2.85246405 L7,2.14753595 C7.00020709,2.10836031 6.97975024,2.07074375 6.94317264,2.04304342 C6.90659504,2.0153431 6.85692594,1.99985309 6.8052002,2.00001476 L6.80521796,2 Z M9,0 L12,3 L9.70073648,3 C9.30657446,3 9,2.69118951 9,2.29411126 L9,3.6190143e-05 L9,0 Z" id="形状"></path>
                        <path d="M10.8585603,8 C12.4268009,8 13.7171207,9.24104932 13.7171207,10.7684995 C13.7171207,11.3794858 13.5186175,11.9522561 13.1612954,12.4105037 L13.8362226,13.0596747 C14.0545925,13.2696904 14.0545925,13.6133683 13.8362226,13.8424764 C13.6178691,14.0525079 13.260547,14.0525079 13.0223431,13.8424764 L12.307699,13.1551364 C11.8908259,13.4033369 11.3747013,13.5369833 10.8585766,13.5369833 C9.29033606,13.5369833 8,12.2959496 8,10.7684995 C8,9.24104932 9.27048574,8 10.8585603,8 L10.8585603,8 Z M10.8585603,9.10738725 C9.90571233,9.10738725 9.15136753,9.85203564 9.15136753,10.7684995 C9.15136753,11.6849633 9.92556265,12.4295803 10.8585603,12.4295803 C11.791558,12.4295803 12.5657532,11.6849476 12.5657532,10.7684838 C12.5657532,9.85201998 11.7915743,9.10738725 10.8585603,9.10738725 L10.8585603,9.10738725 Z" id="形状"></path>
                    </g>
                </g>
            </g>
        </g>
    </g>
</svg>