<?xml version="1.0" encoding="UTF-8"?>
<svg width="15px" height="13px" viewBox="0 0 15 13" version="1.1" xmlns="http://www.w3.org/2000/svg" xmlns:xlink="http://www.w3.org/1999/xlink">
    <title>融资分享区/选中icon</title>
    <g id="页面-1" stroke="none" stroke-width="1" >
        <g id="菜单icon" transform="translate(-20, -409)" >
            <g id="菜单栏/默认备份-15" transform="translate(0, 388)">
                <g id="融资快报" transform="translate(20, 20.2)">
                    <g id="融资分享区/选中icon" transform="translate(0, 0.8)">
                        <path d="M13.3594793,11.8207431 C13.3594793,12.334976 12.9389186,12.75 12.4215621,12.75 L0.702603471,12.75 L2.34312417,5.23988458 C2.34312417,4.72730515 2.76034713,4.31062767 3.2793725,4.31062767 L14.0637517,4.31062767 C14.5811081,4.31062767 15,4.72730515 15,5.23988458 L13.3594793,11.8207431 L13.3594793,11.8207431 Z M2.57676903,3.61285825 L13.1241656,3.61285825 L13.1241656,2.70013617 C13.1241656,2.18755674 12.7036048,1.77087926 12.1862483,1.77087926 L6.56208278,1.77087926 L6.56208278,0.929256906 C6.56208278,0.416677474 6.14152203,0 5.62416555,0 L0.937917223,0 C0.420560748,0 0,0.416677474 0,0.929256906 L0,11.8190896 L1.6388518,4.54046168 C1.6388518,4.02953573 2.05941255,3.61285825 2.57676903,3.61285825 Z" id="形状"></path>
                    </g>
                </g>
            </g>
        </g>
    </g>
</svg>