<?xml version="1.0" encoding="UTF-8"?>
<svg width="13px" height="14px" viewBox="0 0 13 14" version="1.1" xmlns="http://www.w3.org/2000/svg" xmlns:xlink="http://www.w3.org/1999/xlink">
    <title>政府专项债/选中icon</title>
    <g id="页面-1" stroke="none" stroke-width="1" >
        <g id="融资查询-政府专项债" transform="translate(-40, -350)" >
            <g id="二级菜单/默认备份-3" transform="translate(0, 330)">
                <g id="组-3" transform="translate(40, 16)">
                    <g id="政府专项债/选中icon" transform="translate(0, 4)">
                        <path d="M8.11975345,6.16231289 C8.62723805,5.94481949 9.13472262,5.7998239 9.64220722,5.79982388 L9.64220722,4.13237452 L8.11975345,4.13237452 L8.11975345,6.16231289 L8.11975345,6.16231289 Z M5.87232169,10.3671852 L0.579982383,10.3671852 C0.217493396,10.3671852 0,10.6571764 0,11.0196654 L0,11.4546522 C0,11.52715 0.0724978043,11.5996478 0.217493396,11.5996478 L6.23481067,11.5996478 C6.01731728,11.2371588 5.87232169,10.802172 5.87232169,10.3671852 Z M1.95744056,4.13237452 L1.95744056,9.13472262 L1.08746698,9.13472262 C0.942471388,9.13472262 0.797475779,9.27971822 0.797475779,9.42471382 L0.797475779,9.9321984 L5.79982388,9.9321984 L5.79982388,9.78720281 C5.79982388,8.91722923 6.08981508,8.11975345 6.59729968,7.46727326 L6.59729968,4.13237452 L5.0023481,4.13237452 L5.0023481,9.13472262 L3.47989433,9.13472262 L3.47989433,4.13237452 L1.95744056,4.13237452 Z M0.217493396,3.11740535 L0.797475779,3.11740535 L0.797475779,3.40739653 C0.797475779,3.55239212 0.942471371,3.69738773 1.08746698,3.69738773 L10.5846786,3.69738773 C10.7296742,3.69738773 10.8746698,3.55239214 10.8746698,3.40739653 L10.8746698,3.11740535 L11.4546522,3.11740535 C11.52715,3.11740535 11.5996478,3.04490754 11.5996478,2.89991195 L11.5996478,2.46492516 C11.5996478,2.39242735 11.52715,2.31992957 11.4546522,2.24743176 L5.87232169,0 L5.7273261,0 L0.144995592,2.31992955 C0.0724977873,2.31992955 0,2.39242735 0,2.46492516 L0,2.89991195 C0,3.04490754 0.0724978043,3.11740535 0.217493396,3.11740535 L0.217493396,3.11740535 Z" id="形状"></path>
                        <path d="M9.64220722,6.41247609 C7.77676678,6.41247609 6.28441444,7.90482843 6.28441444,9.77026887 C6.28441444,11.6357093 7.77676678,13.1280616 9.64220722,13.1280616 C11.5076477,13.1280616 13,11.6357093 13,9.77026887 C13,7.90482843 11.5076477,6.41247609 9.64220722,6.41247609 Z M8.22447249,11.1880036 L7.92600203,11.4864741 C7.85138441,11.5610917 7.70214918,11.5610917 7.62753155,11.4864741 C7.55291393,11.4864741 7.55291393,11.4118564 7.55291393,11.3372388 L7.55291393,10.2179746 C7.55291393,10.143357 7.62753155,9.99412172 7.77676678,9.99412172 L8.89603104,9.99412172 C8.97064866,9.99412172 9.11988389,10.0687393 9.11988389,10.2179746 C9.11988389,10.2925922 9.11988389,10.2925922 9.04526629,10.3672098 L8.67217819,10.7402979 C8.89603104,10.9641508 9.26911912,11.113386 9.64220722,11.113386 C10.2391482,11.113386 10.8360891,10.6656803 10.9853243,10.0687393 C10.9853243,9.99412172 11.059942,9.99412172 11.059942,9.99412172 L11.5076477,9.99412172 C11.5822653,9.99412172 11.5822653,10.0687393 11.5822653,10.0687393 C11.43303,11.113386 10.6122362,11.8595622 9.64220722,11.7849445 C9.11988389,11.7849445 8.59756058,11.5610917 8.22447249,11.1880036 Z M11.6568829,9.24794554 C11.6568829,9.32256317 11.5822653,9.4717984 11.43303,9.4717984 L10.3137658,9.4717984 C10.2391482,9.4717984 10.0899129,9.39718077 10.0899129,9.24794554 C10.0899129,9.17332792 10.0899129,9.17332792 10.1645305,9.09871031 L10.5376186,8.72562223 C10.3137658,8.50176938 9.9406777,8.35253415 9.5675896,8.35253414 C8.97064866,8.35253414 8.37370771,8.80023984 8.22447249,9.39718079 C8.22447249,9.4717984 8.14985486,9.4717984 8.14985488,9.4717984 L7.70214918,9.4717984 C7.62753155,9.4717984 7.62753155,9.4717984 7.62753155,9.39718079 C7.85138441,8.27791653 8.89603104,7.53174035 10.0152953,7.7555932 C10.3883834,7.83021083 10.7614715,7.97944605 11.059942,8.27791653 L11.3584124,7.97944605 C11.43303,7.90482843 11.5822653,7.90482843 11.6568829,7.97944605 C11.7315005,7.97944605 11.7315005,8.05406368 11.7315005,8.12868128 L11.7315005,9.24794554 L11.6568829,9.24794554 Z" id="形状"></path>
                    </g>
                </g>
            </g>
        </g>
    </g>
</svg>