<?xml version="1.0" encoding="UTF-8"?>
<svg width="14px" height="16px" viewBox="0 0 14 16" version="1.1" xmlns="http://www.w3.org/2000/svg" xmlns:xlink="http://www.w3.org/1999/xlink">
    <title>担保查询/选中icon</title>
    <g id="页面-1" stroke="none" stroke-width="1" fill="none" fill-rule="evenodd">
        <g id="菜单icon" transform="translate(-20, -187)" fill="#FFFFFF" fill-rule="nonzero">
            <g id="菜单栏/默认备份-14" transform="translate(0, 168)">
                <g id="担保查询/选中icon" transform="translate(20, 19)">
                    <path d="M7.30625,15.91995 C7.21875,15.959975 7.0875,16 7,16 C6.86874999,16 6.78125,15.959975 6.69375,15.91995 L2.93124999,13.6385241 C1.09375,12.5578487 0,10.7166979 0,8.79549719 L0,2.71169482 C0,2.43151971 0.218750004,2.23139463 0.525000006,2.23139463 C2.88750001,2.23139463 5.11875,1.47091932 6.60625,0.150093812 C6.825,-0.0500312705 7.13125001,-0.0500312705 7.34999999,0.150093812 C8.83749999,1.47091932 11.06875,2.23139463 13.43125,2.23139463 C13.69375,2.23139463 13.95625,2.43151971 14,2.71169482 L14,8.79549719 C14,10.7166979 12.90625,12.5178236 11.06875,13.6385241 L7.30625,15.91995 Z M7.52500001,10.9948718 L7.52500001,9.47392121 L9.1875,9.47392121 C9.45,9.47392121 9.71249999,9.23377112 9.71249999,8.99362101 C9.71249999,8.75347091 9.49374999,8.51332082 9.1875,8.51332082 L7.52500001,8.51332082 L7.52500001,7.47267042 L9.1875,7.47267042 C9.45,7.47267042 9.71249999,7.27254534 9.71249999,6.99237023 C9.71249999,6.75222014 9.49374999,6.51207004 9.1875,6.51207005 L8.04999999,6.51207005 L9.10000001,5.31131958 C9.275,5.07116949 9.23125001,4.75096936 9.01250001,4.5908693 C8.78036632,4.43371644 8.45467888,4.46877027 8.26875,4.67091933 L6.95624999,6.19186992 L5.64375,4.67091933 C5.46875001,4.43076924 5.11875,4.43076924 4.89999999,4.5908693 C4.68124999,4.79099438 4.6375,5.1111945 4.8125,5.31131958 L5.86250001,6.51207005 L4.8125,6.51207005 C4.55,6.51207005 4.28750001,6.71219514 4.28750001,6.99237023 C4.28750001,7.23252032 4.50625001,7.47267042 4.8125,7.47267042 L6.47499999,7.47267042 L6.47499999,8.51332082 L4.8125,8.51332082 C4.55,8.51332082 4.28750001,8.75347091 4.28750001,8.99362101 C4.28750001,9.23377112 4.50625001,9.47392121 4.8125,9.47392121 L6.47499999,9.47392121 L6.47499999,10.9948718 C6.47499999,11.2350219 6.69375,11.475172 7,11.475172 C7.26249999,11.475172 7.52500001,11.2750469 7.52500001,10.9948718 L7.52500001,10.9948718 Z" id="形状"></path>
                </g>
            </g>
        </g>
    </g>
</svg>