<?xml version="1.0" encoding="UTF-8"?>
<svg width="13px" height="12px" viewBox="0 0 13 12" version="1.1" xmlns="http://www.w3.org/2000/svg" xmlns:xlink="http://www.w3.org/1999/xlink">
    <title>对内担保台账/默认icon</title>
    <g id="页面-1" stroke="none" stroke-width="1">
        <g id="担保查询-对外担保台账-" transform="translate(-41, -298)">
            <g id="二级菜单/选中备份" transform="translate(0, 277)">
                <g id="对内担保台账/默认icon" transform="translate(41, 21)">
                    <path d="M12.6210004,6.73655894 C12.8158453,6.73655894 12.9230769,6.71867388 12.9230769,6.71867388 C12.9230769,6.71867388 12.915943,7.49405648 12.6988047,8.86269948 C12.4667297,10.3249119 11.7437525,11.1668181 11.1828489,11.4891854 C10.5842693,11.8329274 10.1305973,11.8357628 10.1165524,11.8357628 C10.0585393,11.8342328 10.0007188,11.8285467 9.94355507,11.8187502 C9.75628995,11.7897415 9.43303467,11.7090407 9.05003291,11.4894035 C8.8988188,11.4004582 8.75907737,11.2940573 8.63381388,11.172489 C8.17456846,10.7343051 7.71153315,9.97942492 7.53407716,8.86269948 C7.31738466,7.49405649 7.31002781,6.71867389 7.31002781,6.71867388 C7.31002781,6.71867387 7.41703646,6.73655894 7.61210429,6.73655894 C7.88319286,6.73655894 8.3246035,6.70187938 8.8814943,6.5350249 C9.20907076,6.43759193 9.52009406,6.29323658 9.80444383,6.106656 C10.0093208,5.97142753 10.1165524,5.86608019 10.1165524,5.86608019 C10.1165524,5.86608019 10.223561,5.97142753 10.428215,6.106656 C10.7125632,6.29323937 11.0235869,6.43759493 11.3511646,6.5350249 C11.9080554,6.70187938 12.349466,6.73655894 12.6210004,6.73655894 L12.6210004,6.73655894 Z M12.083505,8.75255371 C12.1733476,8.18546657 12.2259602,7.72350867 12.2567252,7.3834745 C11.8920637,7.3501342 11.5319409,7.27974131 11.1821801,7.17343415 C10.9210486,7.09538066 10.6684871,6.99214387 10.428215,6.8652441 C10.3214796,6.80885625 10.2174799,6.74764662 10.1165524,6.68181323 L10.1165524,8.85135774 L8.16676575,8.85135774 C8.26129005,9.38092988 8.43495615,9.84376023 8.68308244,10.228507 C8.9477059,10.6383365 9.21232935,10.828747 9.34653602,10.905958 C9.49104822,10.9898266 9.64471896,11.0575735 9.80466677,11.1079283 C9.97409712,11.1602748 10.0886855,11.170526 10.1165524,11.172489 L10.1165524,8.85092151 L12.0667849,8.85092151 L12.083505,8.75277182 L12.083505,8.75255371 Z M10.0750865,5.37729471 L10.0688443,5.37118761 C10.0688443,5.37118761 9.94400093,5.49354757 9.7059067,5.6510233 C9.37513272,5.8680962 9.01332331,6.03604558 8.63225333,6.14940565 C7.98440518,6.34352394 7.47076371,6.38387437 7.15553409,6.38387437 C6.92880953,6.38387437 6.80418904,6.36315387 6.80418904,6.36315387 C6.80418904,6.36315387 6.8128835,7.26482242 7.06502261,8.85724672 C7.27123718,10.1560944 7.81007028,11.0339889 8.34399881,11.543713 C8.5337102,11.7278458 8.75170145,11.8818034 8.99006349,12 L0.891738677,12 C0.399245005,12 0,11.6093945 0,11.1275583 L0,0.872441745 C0,0.390605474 0.399245005,0 0.891738677,0 L9.18334784,0 C9.41985164,0 9.64666886,0.0919177057 9.81390231,0.255532271 C9.98113575,0.419146836 10.0750865,0.641055808 10.0750865,0.872441745 L10.0750865,5.37729471 Z M4.66490796,5.53695154 L5.69129918,5.53695154 L5.17230727,4.77094769 C4.96720738,4.46559308 4.80446506,4.25337162 4.68363447,4.13362899 C4.56280388,4.01410448 4.40964776,3.90417682 4.22416612,3.80428223 C4.59713582,3.75433494 4.8773647,3.63350176 5.06507569,3.44134647 C5.25234081,3.24940928 5.34597337,3.00621615 5.34597337,2.71154895 C5.34597337,2.47969756 5.28422047,2.27336508 5.16071467,2.09298775 C5.04312111,1.91737628 4.86916878,1.78501632 4.66624556,1.71674725 C4.46047687,1.64629757 4.13031062,1.61096368 3.67596976,1.61096368 L1.86953014,1.61096368 L1.86953014,5.53695154 L2.72782862,5.53695154 L2.72782862,3.89806972 L2.90171766,3.89806972 C3.09901484,3.89806972 3.24280771,3.91268312 3.33376505,3.94212803 C3.42472239,3.97157294 3.51077517,4.02610055 3.59192339,4.10571085 C3.67307161,4.18510305 3.82377545,4.37747646 4.04448077,4.68261297 L4.66468502,5.53695154 L4.66490796,5.53695154 Z M4.26741544,2.90544913 C4.2098983,2.97917045 4.13031062,3.03108073 4.02887534,3.06139808 C3.9269942,3.09149733 3.67217987,3.10654694 3.26376356,3.10654694 L2.63397312,3.10654694 L2.63397312,2.17172562 L3.29831843,2.17172562 C3.6434213,2.17172562 3.85030467,2.17608782 3.91941442,2.18437602 C4.05741098,2.20444218 4.16419668,2.25264459 4.23999448,2.32898324 C4.31579227,2.40510378 4.35369116,2.50521647 4.35369116,2.6291032 C4.35369116,2.73968519 4.32493259,2.83194591 4.26741544,2.90544913 Z M1.94376737,7.36602566 C1.76567759,7.37056511 1.62372008,7.51311628 1.62372008,7.68741139 C1.62372008,7.8617065 1.76567759,8.00425767 1.94376737,8.00879712 L5.22915561,8.00879712 C5.34855564,8.01184058 5.46024152,7.95125916 5.52085763,7.8505701 C5.58147375,7.74988104 5.58147375,7.62494173 5.52085763,7.52425267 C5.46024152,7.42356361 5.34855564,7.36298219 5.22915561,7.36602566 L1.94376737,7.36602566 Z M1.94376737,9.5089607 C1.76567759,9.51350015 1.62372008,9.65605132 1.62372008,9.83034643 C1.62372008,10.0046415 1.76567759,10.1471927 1.94376737,10.1517322 L5.22915561,10.1517322 C5.34855564,10.1547756 5.46024152,10.0941942 5.52085763,9.99350514 C5.58147375,9.89281608 5.58147375,9.76787678 5.52085763,9.66718772 C5.46024152,9.56649866 5.34855564,9.50591723 5.22915561,9.5089607 L1.94376737,9.5089607 Z" id="形状"></path>
                </g>
            </g>
        </g>
    </g>
</svg>