<?xml version="1.0" encoding="UTF-8"?>
<svg width="15px" height="13px" viewBox="0 0 15 13" version="1.1" xmlns="http://www.w3.org/2000/svg" xmlns:xlink="http://www.w3.org/1999/xlink">
    <title>内部借款/默认icon</title>
    <g id="页面-1" stroke="none" stroke-width="1" >
        <g id="融资查询-内部借款" transform="translate(-40, -459)" >
            <g id="二级菜单/默认备份-5" transform="translate(0, 438)">
                <g id="组-3" transform="translate(40, 16)">
                    <g id="内部借款/默认icon" transform="translate(0, 5)">
                        <path d="M9.72960204,0 C11.1306009,0 12.2689993,1.09141414 12.291632,2.44610223 L12.291971,2.48722702 L12.291971,5.9837597 L10.199981,5.98377538 C10.016877,5.98377523 9.84092081,6.0527998 9.70918096,6.17630779 L9.70240084,6.18273598 C9.42803196,6.44695065 9.42341503,6.87552339 9.68997062,7.14524121 L9.69813905,7.15336269 L10.6158929,8.0523385 C10.6207197,8.05705774 10.6253851,8.06190241 10.6299375,8.0668725 C10.7646359,8.21426641 10.7523509,8.43900252 10.6034627,8.57178403 L10.5987005,8.57593884 L9.69813905,9.35223011 C9.56850022,9.46398626 9.49431166,9.62428874 9.49431571,9.79264015 C9.49431571,10.1145989 9.76035473,10.3761952 10.0905789,10.3814162 L10.1006199,10.3814945 L12.2227169,10.3815259 C11.9578563,11.4642385 10.9638261,12.2728745 9.77197779,12.2916418 L9.72960204,12.291971 L2.56236896,12.291971 C1.16137007,12.291971 0.0229716939,11.2005569 0.000339006024,9.84586877 L0,9.80474398 L0,2.48722702 C0,1.1273023 1.12436998,0.022294876 2.52000935,0.000329249223 L2.56236896,0 L9.72960204,0 L9.72960204,0 Z M11.1704591,6.51905936 L12.5058803,7.87959723 C12.582538,7.9577101 12.6193524,8.061063 12.6163085,8.16341248 L12.6163085,8.16365947 C12.6192767,8.26369335 12.5841886,8.36468434 12.5110443,8.44211796 L12.5058803,8.44747472 L11.1704591,9.80801259 C11.0229287,9.95832583 10.7838392,9.95832583 10.6362937,9.80801259 L10.6361422,9.80785821 C10.4902776,9.6590887 10.4888844,9.41885303 10.6319171,9.26832366 L10.6363088,9.26380053 L11.7162247,8.16353598 L10.6362937,7.06328686 C10.4888693,6.91308168 10.4888087,6.66949611 10.6361422,6.51921374 L10.6362937,6.51905936 C10.7838241,6.36876155 11.0229287,6.36876155 11.1704591,6.51905936 L11.1704591,6.51905936 Z M12.9471389,6.51905936 L14.2825601,7.87959723 C14.3592177,7.9577101 14.3960322,8.061063 14.3929883,8.16341248 L14.3929883,8.16365947 C14.3959565,8.26369335 14.3608684,8.36468434 14.2877241,8.44211796 L14.2825601,8.44747472 L12.9471389,9.80801259 C12.7996085,9.95832583 12.560519,9.95832583 12.4129734,9.80801259 L12.412822,9.80785821 C12.2669574,9.6590887 12.2655642,9.41885303 12.4085969,9.26832366 L12.4129886,9.26380053 L13.4929044,8.16353598 L12.4129734,7.06328686 C12.265549,6.91308168 12.2654884,6.66949611 12.412822,6.51921374 L12.4129734,6.51905936 C12.5605038,6.36876155 12.7996085,6.36876155 12.9471389,6.51905936 L12.9471389,6.51905936 Z M3.77442795,3.04014984 L3.7690822,3.04550659 L3.76890048,3.04569184 C3.59400532,3.22407014 3.59232437,3.51211521 3.76382732,3.69259299 L3.7690822,3.69802693 L5.08399877,5.0376781 L3.97114524,5.0376781 C3.72116738,5.0376781 3.51852888,5.2442604 3.51852888,5.49909978 C3.51852888,5.75136113 3.71713915,5.95635338 3.96366423,5.96042884 L3.97114524,5.96049059 L5.3126088,5.96047515 L5.3126088,6.67032972 L3.48342567,6.67032972 C3.23344781,6.67032972 3.03080931,6.87691202 3.03080931,7.13173597 C3.03080931,7.38401275 3.22941957,7.58898957 3.47594466,7.59306502 L3.48342567,7.59312677 L5.3126088,7.59312677 L5.3126088,8.72394179 L5.31268452,8.73156783 C5.31663704,8.98046384 5.51383893,9.18145783 5.75800159,9.18551785 L5.76542203,9.18551785 L5.76557347,9.18551785 L5.77306962,9.18551785 C6.01721714,9.18142695 6.21440389,8.98038665 6.21831098,8.73149064 L6.21837156,8.72392635 L6.21837156,7.59312677 L8.04756983,7.59312677 C8.29754769,7.59312677 8.50018619,7.38655991 8.50018619,7.13173597 C8.50018619,6.87945918 8.30157593,6.67446693 8.05505084,6.67039147 L8.04756983,6.67032972 L6.21835641,6.67032972 L6.21835641,5.96047515 L7.55985026,5.96047515 C7.80982812,5.96047515 8.01248176,5.75392373 8.01248176,5.49908434 C8.01248176,5.24680756 7.81385635,5.04183074 7.56733127,5.03775529 L7.55985026,5.03769354 L6.38452877,5.0376781 L7.68755749,3.71014523 L7.69281237,3.70471129 C7.86258894,3.52602424 7.86264951,3.24194657 7.69293352,3.06318233 L7.68773921,3.05781014 L7.68755749,3.05762489 L7.68222689,3.05226814 C7.50671084,2.8791694 7.22786899,2.87918484 7.05238323,3.05232989 L7.04708292,3.05762489 L5.73427134,4.39514571 L4.40955677,3.04550659 C4.23443446,2.86709741 3.95170067,2.86530668 3.77442795,3.04014984 L3.77442795,3.04014984 Z" id="形状"></path>
                    </g>
                </g>
            </g>
        </g>
    </g>
</svg>