<?xml version="1.0" encoding="UTF-8"?>
<svg width="13px" height="14px" viewBox="0 0 13 14" version="1.1" xmlns="http://www.w3.org/2000/svg" xmlns:xlink="http://www.w3.org/1999/xlink">
    <title>日志系统/选中icon</title>
    <g id="页面-1" stroke="none" stroke-width="1" fill="none" fill-rule="evenodd">
        <g id="菜单icon" transform="translate(-21, -573)" fill="#FFFFFF" fill-rule="nonzero">
            <g id="菜单栏/默认备份-16" transform="translate(0, 553)">
                <g id="日志系统/选中icon" transform="translate(21, 20)">
                    <path d="M0.959491348,0 L11.98086,0 C12.4512323,0.0388701111 12.8704772,0.334620956 13,0.794302269 L13,13.1718976 C12.8909282,13.6687591 12.4273728,13.9628199 11.9382538,14 L1.1265076,14 C0.625458836,13.99155 0.148269533,13.7110092 0,13.2209078 L0,0.804442298 C0.107367593,0.351521004 0.514682748,0.0709802028 0.959491348,0 M1.66164132,12.8718266 C2.20018353,12.8718266 2.73872575,12.8735166 3.27726796,12.8718266 L3.27726796,1.14546082 C2.7370215,1.14377082 2.19847929,1.14377082 1.66164132,1.14377082 C1.65993707,5.32315276 1.65993707,8.6924447 1.66164132,12.8718266 Z M7.32826429,1.16287289 C7.32996854,3.01511818 7.32826429,4.86567347 7.32996854,6.71622875 C7.870215,6.02332677 8.40705296,5.32535478 8.94559518,4.63076279 C9.48584164,5.32535478 10.0209754,6.02163677 10.5612218,6.71453875 C10.5629261,4.86229346 10.5612218,3.01173817 10.5612218,1.16118288 C9.48413739,1.16118288 8.40705296,1.16118288 7.32826429,1.16287289 Z" id="形状"></path>
                </g>
            </g>
        </g>
    </g>
</svg>