<?xml version="1.0" encoding="UTF-8"?>
<svg width="13px" height="13px" viewBox="0 0 13 13" version="1.1" xmlns="http://www.w3.org/2000/svg" xmlns:xlink="http://www.w3.org/1999/xlink">
    <title>lsrzye</title>
    <g id="页面-1" stroke="none" stroke-width="1"  >
        <g id="lsrzye" transform="translate(-40, -243)" >
            <g id="二级菜单/默认" transform="translate(0, 222)">
                <g id="组-3" transform="translate(40, 16)">
                    <g id="lsrzye" transform="translate(0, 5)">
                        <path d="M3.61151892,13 C3.38690006,12.99708 3.20779221,12.8131177 3.2121965,12.589735 C3.21513269,12.3721923 3.39277244,12.1955301 3.61151892,12.1926101 L9.38994918,12.1926101 C9.61456804,12.1955301 9.79367589,12.3794924 9.7892716,12.6028751 C9.7863354,12.8204178 9.60869565,12.99708 9.38994918,13 L3.61151892,13 Z" id="路径"></path>
                        <path d="M11.3748165,0 L1.62518351,0 C0.728176172,0 0,0.724168913 0,1.61623989 L0,9.07839173 C0,9.97046271 0.728176172,10.6946316 1.62518351,10.6946316 L11.3748165,10.6946316 C12.2718238,10.6946316 13,9.97046271 13,9.07839173 L13,1.61623989 C13,0.722708895 12.2732919,0 11.3748165,0 L11.3748165,0 Z"  id="路径"></path>
                        <path d="M10.7817053,3.30256065 L7.648786,6.96720575 C7.62823264,6.99202606 7.62823264,6.99202606 7.60621118,7.01246631 C7.37865613,7.22708895 7.01750423,7.21686882 6.80169396,6.99056604 L5.03410503,5.12904313 L2.80112931,7.14386792 C2.63229814,7.28986972 2.37538114,7.27234951 2.22857143,7.10298742 C2.08616601,6.93946541 2.09791078,6.69418239 2.25499718,6.54526056 L4.66561265,4.36983378 C4.8946358,4.16251123 5.2484472,4.17565139 5.46132129,4.40049416 L7.20688876,6.2401168 L10.1636364,2.78133423 C10.3119142,2.61343217 10.5688312,2.59737197 10.7376623,2.74337376 C10.9020892,2.88645553 10.9226426,3.13465858 10.7817053,3.30256065 Z" fill="#fff" id="路径" stroke="#1E2D3C" stroke-width="0.3"></path>
                    </g>
                </g>
            </g>
        </g>
    </g>
</svg>