<svg t="1709045112049" class="icon" viewBox="0 0 1024 1024" version="1.1" xmlns="http://www.w3.org/2000/svg" p-id="907" width="200" height="200"><path d="M836.266667 34.133333H187.733333C136.533333 34.133333 93.866667 76.8 93.866667 128v768c0 51.2 42.666667 93.866667 93.866666 93.866667h648.533334c51.2 0 93.866667-42.666667 93.866666-93.866667v-768C930.133333 76.8 887.466667 34.133333 836.266667 34.133333z m-88.746667 725.333334H276.48c-13.653333 0-25.6-11.946667-25.6-25.6 0-112.64 71.68-208.213333 172.373333-244.053334-25.6-23.893333-40.96-58.026667-40.96-93.866666 0-71.68 58.026667-129.706667 129.706667-129.706667s129.706667 58.026667 129.706667 129.706667c0 37.546667-15.36 69.973333-40.96 93.866666 100.693333 35.84 172.373333 133.12 172.373333 244.053334 0 13.653333-11.946667 25.6-25.6 25.6z" p-id="908"></path></svg>