<?xml version="1.0" encoding="UTF-8"?>
<svg width="15px" height="15px" viewBox="0 0 15 15" version="1.1" xmlns="http://www.w3.org/2000/svg" xmlns:xlink="http://www.w3.org/1999/xlink">
    <title>贷后管理/选中icon</title>
    <g id="页面-1" stroke="none" stroke-width="1">
        <g id="菜单icon" transform="translate(-20, -298)">
            <g id="菜单栏/默认备份-10" transform="translate(0, 278)">
                <g id="贷后管理/选中icon" transform="translate(20, 20)">
                    <path d="M12.5180353,7.61556842 C12.0388151,7.82532883 11.6488792,8.0025402 11.2261449,8.19060125 C10.9929123,8.08029621 10.7031935,7.85968613 10.3788543,7.7927798 C9.24184501,7.57216972 8.15038895,8.55587368 8.19594221,9.69508966 C8.19594221,9.87230104 8.039239,10.1489678 7.88435792,10.2032162 C7.29398769,10.4021269 7.02613454,10.8216477 6.99333619,11.3749812 C6.96053785,12.2375304 6.89311902,13.1326287 8.01919556,13.4653521 C8.10847995,13.4870514 8.1412783,13.6751125 8.19776434,13.7854175 C8.06474882,13.8523239 7.9189784,13.9843282 7.78596288,13.9843282 C6.28270536,13.9951779 4.77762571,13.9951779 3.2743682,13.9951779 C2.5837808,13.9951779 1.89319341,14.0060276 1.20260602,13.9951779 C0.322517068,13.9734786 0,13.6299055 0,12.7673563 L0,1.16905259 C0,0.362560007 0.311584286,0.018986933 1.13700932,0.00813725701 C4.55714795,-0.002712419 7.97728657,-0.002712419 11.3992473,0.00813725701 C12.1226331,0.00813725701 12.5016362,0.362560007 12.5125689,1.14735324 C12.5399009,3.31367188 12.5180353,5.49264848 12.5180353,7.61556842 Z M6.32279223,1.52166706 C6.32279223,1.51081739 6.32279223,1.51081739 6.32279223,1.52166706 C5.27506729,1.52166706 4.22734236,1.51081739 3.18143955,1.52166706 C2.66942093,1.52166706 2.24486456,1.93033819 2.25579734,2.37336663 C2.27766291,2.82724474 2.65666602,3.15815986 3.18143955,3.15815986 C5.22040338,3.15815986 7.24843444,3.15815986 9.28739827,3.14731018 C9.92332176,3.14731018 10.2002856,2.83809442 10.1893528,2.25221191 C10.17842,1.7983338 9.84314802,1.53432502 9.28739827,1.53432502 C8.29433724,1.51081739 7.31403113,1.52166706 6.32279223,1.52166706 Z M4.6628315,6.23223473 C5.19671569,6.23223473 5.73242201,6.25393408 6.25537341,6.22138506 C6.67810764,6.1996857 7.00244684,5.96641767 7.04617797,5.51434784 C7.10266401,5.00622134 6.76739203,4.63009924 6.33372501,4.60839989 C5.22040338,4.55234323 4.09432684,4.63009924 2.97918308,4.66445655 C2.45623168,4.67530622 2.26673013,5.08397735 2.27766291,5.49445676 C2.28859569,5.97003423 2.63480045,6.23585129 3.13588629,6.23585129 L4.6628315,6.23585129 L4.6628315,6.23223473 Z" id="形状"></path>
                    <path d="M14.0814801,12.5967249 C13.4234793,12.8536405 13.2505997,13.1508566 13.3917259,13.7973435 C13.4781657,14.19699 13.1870929,14.3615503 12.9277736,14.5160355 C12.6578698,14.6705206 12.3879659,14.8854566 12.0104534,14.5882405 C11.4812302,14.1566895 11.1037177,14.2188194 10.4686499,14.5580151 C10.2534325,14.6705206 9.88650441,14.6604455 9.63776952,14.5781654 C9.33611231,14.475735 9.02210656,14.2910244 9.11913081,13.8594734 C9.27084145,13.1928362 8.92508231,12.7612852 8.32176789,12.534595 C7.86840004,12.3599596 7.9336709,12.0006136 7.94425536,11.7235478 C7.95483983,11.5086118 8.13830386,11.1895664 8.33235236,11.0972111 C8.92508231,10.8201452 9.19498613,10.6035301 9.14206381,9.70012764 C9.11031042,9.21820102 9.45430549,9.10401631 9.74537823,8.98143567 C9.93942673,8.8890804 10.3063548,8.86893016 10.4580654,8.98143567 C11.0084575,9.40291157 11.5253322,9.38108214 12.0333864,8.99151079 C12.5079232,8.63216481 12.777827,9.01166104 13.1235862,9.18629647 C13.4587608,9.35085678 13.4358278,9.57586781 13.349388,9.87476307 C13.2206104,10.3365394 13.5010987,10.8604457 13.9862199,11.0048558 C14.4484082,11.1291156 14.6001188,11.4061815 14.5454324,11.8578827 C14.6318722,12.2273038 14.4484082,12.453994 14.0814801,12.5967249 Z M11.2342594,13.0887267 C11.9575311,13.0988018 12.5820144,12.5748955 12.6049474,11.9485588 C12.6261164,11.0653065 12.0757243,10.4809495 11.1919216,10.449045 C10.4686499,10.4305739 9.85298694,10.9947807 9.84240248,11.7033975 C9.83181802,12.534595 10.3716257,13.0786515 11.2342594,13.0887267 Z" id="形状"></path>
                </g>
            </g>
        </g>
    </g>
</svg>