<?xml version="1.0" encoding="UTF-8"?>
<svg width="12px" height="13px" viewBox="0 0 12 13" version="1.1" xmlns="http://www.w3.org/2000/svg" xmlns:xlink="http://www.w3.org/1999/xlink">
    <title>还款计划/选中icon</title>
    <g id="页面-1" stroke="none" stroke-width="1">
        <g id="融资查询-还款计划" transform="translate(-40, -297)">
            <g id="二级菜单/默认备份-2" transform="translate(0, 276)">
                <g id="组-3" transform="translate(40, 16)">
                    <g id="还款计划/选中icon" transform="translate(0, 5)">
                        <path d="M6.85696484,9.62269578 C6.85696484,11.0034077 7.97625297,12.1226958 9.35696484,12.1226958 C10.7376767,12.1226958 11.8569648,11.0034077 11.8569648,9.62269578 C11.8569648,8.95965456 11.5935727,8.32376978 11.1247318,7.85492883 C10.6558908,7.38608788 10.0200061,7.12269578 9.35696484,7.12269578 C7.97625297,7.12269578 6.85696484,8.24198391 6.85696484,9.62269578 Z M10.1882148,9.7312337 C10.3594076,9.73455877 10.4973898,9.87254092 10.5007148,10.0437337 C10.5007148,10.1266139 10.4677908,10.2060995 10.4091857,10.2647046 C10.3505806,10.3233097 10.271095,10.3562337 10.1882148,10.3562337 L9.66946484,10.3562337 L9.66946484,10.6312337 C9.66946484,10.8038227 9.52955382,10.9437337 9.35696484,10.9437337 C9.18437585,10.9437337 9.04446484,10.8038227 9.04446484,10.6312337 L9.04446484,10.3562337 L8.53196483,10.3562337 C8.35937585,10.3562337 8.21946483,10.2163227 8.21946483,10.0437337 C8.21946483,9.96085355 8.25238885,9.88136795 8.31099397,9.82276283 C8.36959908,9.76415771 8.44908468,9.7312337 8.53196483,9.7312337 L9.04446484,9.7312337 L9.04446484,9.6499837 L8.53196483,9.6499837 C8.35937585,9.6499837 8.21946483,9.51007269 8.21946483,9.3374837 C8.21946483,9.16489472 8.35937585,9.0249837 8.53196483,9.0249837 L8.65696484,9.0249837 L8.31946484,8.6187337 C8.20900789,8.4841143 8.22859543,8.28544066 8.36321484,8.17498371 C8.49783425,8.06452675 8.69650789,8.0841143 8.80696484,8.2187337 L9.35696484,8.89998371 L9.90696484,8.2187337 C10.0201763,8.08784523 10.2171438,8.07120009 10.3507148,8.1812337 C10.4147136,8.23361867 10.4548043,8.30966118 10.4618674,8.39206349 C10.4689304,8.47446579 10.4423653,8.55622167 10.3882148,8.6187337 L10.0507148,9.0249837 L10.1694648,9.0249837 C10.3420538,9.0249837 10.4819648,9.16489472 10.4819648,9.3374837 C10.4819648,9.51007269 10.3420538,9.6499837 10.1694648,9.6499837 L9.65071484,9.6499837 L9.65071484,9.7312337 L10.1882148,9.7312337 Z" id="形状"></path>
                        <path d="M10,6.26664891 L10,1.39334217 C9.99266943,0.619071958 9.36096694,-0.00368795002 8.58666667,1.64408209e-05 L1.41333333,1.64408209e-05 C0.639033061,-0.00368795019 0.00733056629,0.619071958 0,1.39334217 L0,10.6066252 C0.00733056629,11.3808955 0.639033061,12.0036554 1.41333333,11.999951 L7.10287159,12.0000785 C6.39252473,11.3810763 5.92991573,10.527911 5.92666667,9.6532971 C5.93195047,8.73271722 6.30318608,7.85204356 6.95851108,7.20547643 C7.61383608,6.5589093 8.49942729,6.19955258 9.42,6.20664925 C9.6147148,6.20966861 9.80879048,6.22974529 10,6.26664891 Z M3.78000001,1.84667303 L8.50666667,1.84667303 C8.69812538,1.84667303 8.85333334,2.00188014 8.85333334,2.19333781 C8.85333334,2.38479548 8.69812538,2.54000258 8.50666667,2.54000258 L3.78000001,2.54000258 C3.5885413,2.54000258 3.43333334,2.38479548 3.43333334,2.19333781 C3.43333334,2.00188014 3.58854129,1.84667303 3.78000001,1.84667303 L3.78000001,1.84667303 Z M3.78000001,3.95999484 L8.50666667,3.95999484 C8.64814007,3.91958217 8.79971289,3.97287512 8.88476403,4.09293373 C8.96981517,4.21299235 8.96981517,4.37366035 8.88476403,4.49371897 C8.79971289,4.61377759 8.64814007,4.66707054 8.50666667,4.62665787 L3.78000001,4.62665787 C3.6385266,4.66707054 3.48695379,4.61377759 3.40190264,4.49371897 C3.3168515,4.37366035 3.3168515,4.21299235 3.40190264,4.09293373 C3.48695379,3.97287512 3.6385266,3.91958217 3.78000001,3.95999484 L3.78000001,3.95999484 Z M2.48666667,6.29998207 L1.82000001,6.9666451 C1.78858614,6.9992369 1.74526664,7.01764914 1.70000001,7.01764914 C1.65473337,7.01764914 1.61141388,6.9992369 1.58000001,6.9666451 L1.26,6.65331347 C1.19188488,6.58519872 1.19188488,6.47476289 1.26,6.40664815 C1.32811513,6.3385334 1.43855156,6.3385334 1.50666667,6.40664815 L1.70666667,6.60664706 L2.28666667,6.0866499 C2.31923339,6.05367127 2.3636514,6.03510902 2.41000001,6.03510902 C2.45634861,6.03510902 2.50076662,6.05367127 2.53333334,6.0866499 C2.57301957,6.15946735 2.55313123,6.25038498 2.48666667,6.29998207 L2.48666667,6.29998207 Z M2.58666667,4.13999385 L1.92,4.80665688 C1.89035229,4.83729101 1.84928919,4.85419925 1.80666667,4.85332329 C1.75905223,4.85299889 1.71350613,4.83382169 1.68,4.79999025 L1.33333333,4.45332547 C1.28927058,4.40926296 1.27206211,4.34504044 1.2881902,4.28484992 C1.30431829,4.22465941 1.3513327,4.17764526 1.41152354,4.16151727 C1.47171439,4.14538927 1.53593725,4.16259764 1.58000001,4.20666016 L1.78000001,4.40665906 L2.36,3.8866619 C2.40357369,3.8362182 2.47221376,3.81523052 2.53654703,3.83268012 C2.60088031,3.85012972 2.64950752,3.90292469 2.66161963,3.96847248 C2.67373173,4.03402026 2.64718257,4.10070639 2.59333333,4.13999385 L2.58666667,4.13999385 Z M2.66666667,2.10000498 L1.96,2.73333486 C1.92855145,2.76120282 1.88862011,2.77764505 1.84666667,2.78000128 C1.79905223,2.77967688 1.75350613,2.76049967 1.72,2.72666823 L1.4,2.4133366 C1.33188489,2.34522186 1.33188489,2.23478603 1.40000001,2.16667129 C1.46811512,2.09855655 1.57855155,2.09855654 1.64666667,2.16667129 L1.84666667,2.36667019 L2.42666667,1.84667303 C2.47192031,1.8038014 2.53660827,1.78832877 2.59636322,1.80608354 C2.65611817,1.82383831 2.70186191,1.8721231 2.71636322,1.93274951 C2.73086453,1.99337592 2.71192031,2.05713334 2.66666667,2.10000498 L2.66666667,2.10000498 Z M3.43333334,6.46664782 C3.43333334,6.27519016 3.5885413,6.11998305 3.78000001,6.11998305 L6.06000001,6.11998305 C6.20147341,6.07957038 6.35304623,6.13286333 6.43809737,6.25292195 C6.52314851,6.37298057 6.52314851,6.53364857 6.43809737,6.65370719 C6.35304623,6.77376581 6.20147341,6.82705876 6.06000001,6.78664609 L3.78000001,6.78664609 C3.59719875,6.79054538 3.44404721,6.6491755 3.43333334,6.46664782 L3.43333334,6.46664782 Z" id="形状"></path>
                    </g>
                </g>
            </g>
        </g>
    </g>
</svg>