<?xml version="1.0" encoding="UTF-8"?>
<svg width="13px" height="14px" viewBox="0 0 13 14" version="1.1" xmlns="http://www.w3.org/2000/svg" xmlns:xlink="http://www.w3.org/1999/xlink">
    <title>反向保理/默认icon</title>
    <g id="页面-1" stroke="none" stroke-width="1" >
        <g id="承兑汇票查询-商业承兑汇票" transform="translate(-40, -460)" >
            <g id="二级菜单/默认备份-2" transform="translate(0, 440)">
                <g id="组-3" transform="translate(40, 16)">
                    <g id="反向保理/默认icon" transform="translate(0, 4)">
                        <path d="M7.72875953,0.206833742 L12.3860803,1.82197904 C12.7540123,1.94928954 13.0000001,2.29007394 13.0000001,2.67238776 L13.0000001,7.4988856 C13.0000001,9.6754907 11.7411606,11.6640984 9.75092034,12.6310977 L7.31733218,13.8124714 C6.80232432,14.0625095 6.19767568,14.0625095 5.68266782,13.8124714 L3.25000008,12.6310977 C1.25940209,11.6643515 8.44927399e-08,9.67569234 8.44927399e-08,7.4988856 L8.44927399e-08,2.67238776 C-0.000166304676,2.29030794 0.245430365,1.94959368 0.612999304,1.82197904 L5.27124047,0.206833742 C6.0662353,-0.0689445806 6.9337647,-0.0689445806 7.72875953,0.206833742 Z M8.80104781,3.83843068 C8.64400288,3.74583149 8.45581898,3.71822724 8.2779813,3.76170329 C8.10014362,3.80517933 7.94725368,3.91616604 7.85301611,4.07019636 L7.02832058,5.41660167 L5.97075901,5.41660167 L5.14606347,4.07019636 C4.94800766,3.75407057 4.52703929,3.65322013 4.20244818,3.84413657 C3.87785706,4.03505302 3.77076808,4.44649371 3.96240448,4.76639523 L4.36002554,5.41660167 L4.26798362,5.42291436 C3.96364416,5.46758305 3.73853818,5.72381073 3.7387425,6.02532477 L3.7387425,6.09296067 C3.7387425,6.46631084 4.04800346,6.76931967 4.42905698,6.76931967 L5.80968566,6.76931967 L5.80968566,8.12203767 L4.42905698,8.12203767 C4.0478069,8.12203767 3.7387425,8.42485391 3.7387425,8.79839668 C3.7387425,9.17193944 4.0478069,9.47475568 4.42905698,9.47475568 L5.80968566,9.47475568 L5.80968566,9.92566169 C5.80968566,10.2992045 6.11874992,10.6020207 6.5,10.6020207 C6.88125008,10.6020207 7.19031434,10.2992045 7.19031434,9.92566169 L7.19031434,9.47475568 L8.57094302,9.47475568 C8.9521931,9.47475568 9.26125736,9.17193944 9.26125736,8.79839668 C9.26125736,8.42485391 8.9521931,8.12203767 8.57094302,8.12203767 L7.19031434,8.12203767 L7.19031434,6.76931967 L8.57094302,6.76931967 C8.75402577,6.76931967 8.92960992,6.69806062 9.05906897,6.57121871 C9.18852802,6.44437679 9.26125736,6.27234223 9.26125736,6.09296067 L9.26125736,6.02622659 C9.26125736,5.86454401 9.19570399,5.70948352 9.07901823,5.59515667 C8.96233247,5.48082982 8.80407261,5.41660167 8.63905403,5.41660167 L9.03759552,4.76639523 L9.08085521,4.68433033 C9.21645274,4.37347373 9.09697064,4.01226147 8.80104781,3.83843068 Z" id="形状"></path>
                    </g>
                </g>
            </g>
        </g>
    </g>
</svg>