<?xml version="1.0" encoding="UTF-8"?>
<svg width="13px" height="12px" viewBox="0 0 13 12" version="1.1" xmlns="http://www.w3.org/2000/svg" xmlns:xlink="http://www.w3.org/1999/xlink">
    <title>专项借款/默认icon</title>
    <g id="页面-1" stroke="none" stroke-width="1" fill="none" fill-rule="evenodd">
        <g id="融资查询-政府专项债" transform="translate(-40, -405)" fill="#BFC9D7" fill-rule="nonzero">
            <g id="二级菜单/默认备份-4" transform="translate(0, 384)">
                <g id="组-3" transform="translate(40, 16)">
                    <g id="专项借款/默认icon" transform="translate(0, 5)">
                        <path d="M11.6361403,0 L1.36157895,0 C0.611228075,0 0,0.606449184 0,1.3531963 L0,8.54912313 C0.00125557499,9.29470645 0.61012035,9.89881081 1.36157895,9.90005657 L6.04385965,9.90005657 L6.04385965,11.094852 L2.26929824,11.094852 C2.01842105,11.094852 1.81315789,11.2985103 1.81315789,11.547426 C1.81315789,11.7963417 2.01842105,12 2.26929824,12 L10.7307018,12 C10.9815789,12 11.1868421,11.7963417 11.1868421,11.547426 C11.1868421,11.2985103 10.9815789,11.094852 10.7307018,11.094852 L6.95614035,11.094852 L6.95614035,9.90005657 L11.6361403,9.90005657 C12.3864912,9.90005657 13,9.29360738 13,8.54912313 L13,1.35093343 C13,0.606449184 12.3887719,0 11.6361403,0 Z M8.17175439,5.39920799 C8.42263158,5.39920799 8.62789474,5.6028663 8.62789474,5.85178201 C8.62789474,6.10069773 8.42263158,6.30435602 8.17175439,6.30435602 L6.95614035,6.30435602 L6.95614035,7.51046577 C6.95614035,7.75938147 6.75087719,7.96303979 6.5,7.96303979 C6.24912281,7.96303979 6.04385965,7.75938149 6.04385965,7.51046577 L6.04385965,6.30435602 L4.82824561,6.30435602 C4.57736842,6.30435602 4.37210526,6.10069772 4.37210526,5.85178201 C4.37210526,5.60286631 4.57736842,5.399208 4.82824561,5.39920799 L6.04385965,5.39920799 L6.04385965,4.64567225 L4.82824561,4.64567225 C4.57736842,4.64567225 4.37210526,4.44201395 4.37210526,4.19309824 C4.37210526,3.94418254 4.57736842,3.74052423 4.82824561,3.74052423 L5.52614035,3.74052423 L4.75526316,2.82406185 C4.67769243,2.73169936 4.64034954,2.61250895 4.65147438,2.49279058 C4.66259923,2.3730722 4.72127744,2.26266559 4.8145614,2.18593249 C4.90765172,2.10896825 5.02778136,2.07191733 5.14844313,2.08295519 C5.2691049,2.09399305 5.38038153,2.1522125 5.45771929,2.24476711 L6.5,3.48708278 L7.5445614,2.24476711 C7.70649122,2.05242315 7.99385964,2.02753158 8.18771929,2.18593249 C8.38157895,2.3443334 8.40666666,2.63171789 8.24701755,2.82406185 L7.47614035,3.74052423 L8.17403508,3.74052423 C8.42491227,3.74052423 8.63017544,3.94418254 8.63017544,4.19309824 C8.63017544,4.44201395 8.42491229,4.64567225 8.17403508,4.64567225 L6.95614035,4.64567225 L6.95614035,5.39920799 L8.17175439,5.39920799 Z" id="形状"></path>
                    </g>
                </g>
            </g>
        </g>
    </g>
</svg>