<?xml version="1.0" encoding="UTF-8"?>
<svg width="14px" height="14px" viewBox="0 0 14 14" version="1.1" xmlns="http://www.w3.org/2000/svg" xmlns:xlink="http://www.w3.org/1999/xlink">
    <title>用户管理/选中icon</title>
    <g id="页面-1" stroke="none" stroke-width="1" fill="none" fill-rule="evenodd">
        <g id="菜单icon" transform="translate(-20, -518)" fill="#FFFFFF" fill-rule="nonzero">
            <g id="菜单栏/默认备份-13" transform="translate(0, 498)">
                <g id="用户管理/选中icon" transform="translate(20, 20)">
                    <path d="M6.825,0 C8.8375,0 10.4125,1.575 10.4125,3.5 C10.4125,5.425 8.8375,7 6.825,7 C4.8125,7 3.2375,5.425 3.2375,3.5 C3.2375,1.575 4.9,0 6.825,0 Z M6.825,0 C8.8375,0 10.4125,1.575 10.4125,3.5 C10.4125,5.425 8.8375,7 6.825,7 C4.8125,7 3.2375,5.425 3.2375,3.5 C3.2375,1.575 4.9,0 6.825,0 Z M4.6375,8.1375 L9.3625,8.1375 C11.9,8.1375 14,10.15 14,12.6875 L14,12.95 C14,13.9125 11.9,14 9.3625,14 L4.6375,14 C2.1,14 0,14 0,12.95 L0,12.6875 C0,10.15 2.1,8.1375 4.6375,8.1375 Z" id="形状"></path>
                </g>
            </g>
        </g>
    </g>
</svg>